<svg width="90" height="90" viewBox="0 0 90 90" fill="none" xmlns="http://www.w3.org/2000/svg">
<path d="M15.834 19.283H27.084M27.084 19.283H34.584M27.084 19.283V15.833M40.834 19.283H34.584M34.584 19.283C33.2673 23.9955 30.5007 28.4538 27.3507 32.3705L32.1715 37.383M19.3173 40.833C22.1995 38.215 24.8845 35.3878 27.3507 32.3747C25.7465 30.4872 23.4965 27.4413 22.8507 26.0622M51.2506 74.1663L54.7215 65.833M54.7215 65.833L61.6673 49.1663L68.6131 65.833M54.7215 65.833H68.6131M72.084 74.1663L68.6131 65.833" stroke="black" stroke-width="6" stroke-linecap="round" stroke-linejoin="round"/>
<path d="M53.334 36.6663V28.333C53.334 16.5497 53.334 10.6538 49.6715 6.99551C46.0132 3.33301 40.1173 3.33301 28.334 3.33301C16.5507 3.33301 10.6548 3.33301 6.99648 6.99551C3.33398 10.6538 3.33398 16.5497 3.33398 28.333C3.33398 40.1163 3.33398 46.0122 6.99648 49.6705C10.6548 53.333 16.5507 53.333 28.334 53.333H36.6673" stroke="black" stroke-width="6" stroke-linecap="round" stroke-linejoin="round"/>
<path d="M11.668 63.7493C11.668 69.5993 11.668 72.5285 13.0721 74.6285C13.6803 75.5388 14.4618 76.3204 15.3721 76.9285C17.4721 78.3327 20.4013 78.3327 26.2513 78.3327M78.3346 26.2493C78.3346 20.3993 78.3346 17.4702 76.9305 15.3702C76.3223 14.4599 75.5408 13.6783 74.6305 13.0702C72.5305 11.666 69.6013 11.666 63.7513 11.666M36.668 61.666C36.668 49.8827 36.668 43.9868 40.3305 40.3285C43.9888 36.666 49.8846 36.666 61.668 36.666C73.4513 36.666 79.3471 36.666 83.0055 40.3285C86.668 43.9868 86.668 49.8827 86.668 61.666C86.668 73.4493 86.668 79.3452 83.0055 83.0035C79.3471 86.666 73.4513 86.666 61.668 86.666C49.8846 86.666 43.9888 86.666 40.3305 83.0035C36.668 79.3452 36.668 73.4493 36.668 61.666Z" stroke="black" stroke-width="6" stroke-linecap="round" stroke-linejoin="round"/>
</svg>
